<svg width="651" height="414" xmlns="http://www.w3.org/2000/svg" xmlns:xlink="http://www.w3.org/1999/xlink" xml:space="preserve" overflow="hidden"><defs><clipPath id="clip0"><rect x="314" y="153" width="651" height="414"/></clipPath></defs><g clip-path="url(#clip0)" transform="translate(-314 -153)"><path d="M809.48 373.485C809.453 446.154 768.445 512.593 703.503 545.185 701.873 546.005 700.227 546.802 698.564 547.575 655.582 567.524 606.76 570.938 561.421 557.165 556.972 555.805 552.592 554.292 548.283 552.625 449.369 514.357 400.201 403.139 438.464 304.212 463.189 240.288 520.103 194.386 587.808 183.765 597.633 182.245 607.561 181.482 617.504 181.485 723.531 181.485 809.48 267.445 809.48 373.485Z" stroke="#DAC2A8" stroke-width="3" stroke-miterlimit="8" fill="#4B847D" fill-rule="evenodd"/><path d="M823.344 400.89C851.958 369.954 866.682 323.637 851.254 284.485 828.524 324.229 792.408 354.686 749.298 370.467 732.65 376.493 713.503 381.469 704.46 396.637 698.833 406.074 698.434 417.887 700.984 428.564 703.535 439.242 708.773 449.061 713.96 458.745L713.992 461.485C754.515 449.625 794.731 431.826 823.344 400.89Z" stroke="#DAC2A8" stroke-width="3" stroke-miterlimit="8" fill="#4B847D" fill-rule="evenodd"/><path d="M850.102 283.851C845.232 318.475 829.546 350.688 805.272 375.915 800.039 381.288 794.261 386.284 787.583 389.79 781.047 393.157 773.726 394.718 766.38 394.309 759.524 394.065 752.539 393.024 745.742 394.447 738.578 395.946 732.91 400.56 729.232 406.783 724.733 414.396 723.245 423.168 722.089 431.797 720.805 441.377 719.624 451.349 714.138 459.594 713.474 460.594 715.067 461.564 715.731 460.566 725.275 446.22 722.059 427.901 728.493 412.434 731.495 405.216 736.697 398.858 744.48 396.671 751.286 394.76 758.49 395.827 765.43 396.134 772.718 396.456 779.655 395.563 786.327 392.486 793.152 389.337 799.138 384.556 804.486 379.34 816.525 367.422 826.61 353.69 834.372 338.648 843.325 321.529 849.277 303.009 851.969 283.889 852.135 282.705 850.267 282.675 850.102 283.851Z" fill="#FFFFFF" fill-rule="evenodd"/><path d="M813.376 368.096C823.286 375.448 836.968 374.41 845.698 365.644 846.55 364.783 845.275 363.394 844.421 364.257 836.304 372.438 823.542 373.379 814.351 366.474 813.383 365.749 812.414 367.375 813.376 368.096Z" fill="#FFFFFF" fill-rule="evenodd"/><path d="M770.504 394.846C768.506 382.851 771.118 370.545 777.821 360.384 778.486 359.378 776.884 358.402 776.22 359.407 769.265 369.995 766.572 382.806 768.679 395.284 768.88 396.474 770.705 396.029 770.504 394.846Z" fill="#FFFFFF" fill-rule="evenodd"/><path d="M840.554 321.28C836.39 319.333 833.451 315.35 832.733 310.68 832.555 309.5 830.816 309.942 830.993 311.113 831.809 316.267 835.04 320.666 839.62 322.86 840.044 323.109 840.582 322.975 840.85 322.553 841.106 322.117 840.973 321.549 840.554 321.28Z" fill="#FFFFFF" fill-rule="evenodd"/><path d="M715.742 239.485C715.837 240.23 715.931 240.975 716.014 241.731 717.231 251.752 717.634 261.855 717.218 271.942 717.198 272.722 717.166 273.513 717.124 274.291 715.862 298.581 710.11 322.425 700.159 344.612 696.192 353.437 691.56 361.946 686.303 370.067 679.043 381.282 670.28 392.863 667.232 405.455 666.9 406.765 666.648 408.095 666.48 409.436L710.996 462.084C711.157 462.153 711.307 462.232 711.469 462.302L713.15 464.485C713.45 464.085 713.753 463.664 714.054 463.264 714.229 463.033 714.394 462.79 714.569 462.559 714.683 462.401 714.796 462.242 714.908 462.107 714.946 462.054 714.983 462.001 715.009 461.959 715.121 461.823 715.21 461.685 715.31 461.559 717.009 459.209 718.695 456.844 720.367 454.462 720.38 454.452 720.38 454.452 720.382 454.43 733.079 436.25 744.373 416.848 752.367 396.346 752.608 395.729 752.861 395.102 753.081 394.461 756.633 385.2 759.424 375.663 761.426 365.946 762.505 360.622 763.314 355.246 763.85 349.84 765.209 335.869 764.365 321.77 761.35 308.061 755.337 280.734 740.665 255.637 717.522 240.616 716.93 240.231 716.347 239.859 715.742 239.485Z" stroke="#DAC2A8" stroke-width="3" stroke-miterlimit="8" fill="#4B847D" fill-rule="evenodd"/><path d="M714.288 239.503C731.164 270.17 738.031 305.421 733.913 340.249 732.986 347.705 731.402 355.187 728.212 362.018 725.051 368.652 720.188 374.312 714.125 378.409 708.549 382.344 702.393 385.718 697.862 390.951 693.086 396.467 691.359 403.577 692.173 410.777 693.169 419.585 697.243 427.508 701.495 435.116 706.215 443.563 711.251 452.261 711.844 462.171 711.916 463.371 713.758 463.188 713.687 461.99 712.655 444.749 699.138 432.013 694.972 415.749 693.028 408.159 693.34 399.933 698.195 393.493 702.44 387.862 708.785 384.378 714.466 380.443 720.43 376.312 725.39 371.418 728.831 364.934 732.352 358.301 734.229 350.865 735.341 343.466 737.739 326.668 737.504 309.594 734.643 292.87 731.484 273.765 725.107 255.345 715.789 238.408 715.212 237.36 713.715 238.462 714.288 239.503Z" fill="#FFFFFF" fill-rule="evenodd"/><path d="M735.998 328.985C748.567 328.79 759.137 319.92 760.968 308.032 761.143 306.867 759.256 306.552 759.081 307.719 757.398 318.796 747.522 327.049 735.813 327.164 734.581 327.178 734.773 328.999 735.998 328.985Z" fill="#FFFFFF" fill-rule="evenodd"/><path d="M729.921 274.802C725.107 275.834 720.069 274.494 716.516 271.234 715.621 270.408 714.399 271.835 715.288 272.655 719.229 276.237 724.781 277.727 730.108 276.633 730.631 276.568 731.011 276.129 730.977 275.628 730.922 275.124 730.451 274.755 729.921 274.802Z" fill="#FFFFFF" fill-rule="evenodd"/><path d="M431.701 451.872C408.883 427.053 397.141 389.895 409.444 358.485 427.571 390.37 456.372 414.804 490.751 427.465 504.027 432.299 519.296 436.292 526.508 448.46 530.995 456.031 531.313 465.508 529.28 474.074 527.246 482.64 523.068 490.518 518.932 498.287L518.906 500.485C486.591 490.971 454.52 476.691 431.701 451.872Z" stroke="#DAC2A8" stroke-width="3" stroke-miterlimit="8" fill="#4B847D" fill-rule="evenodd"/><path d="M409.476 358.676C413.358 386.297 425.862 411.995 445.21 432.12 449.298 436.526 454.057 440.262 459.31 443.189 464.52 445.875 470.356 447.12 476.211 446.794 481.676 446.6 487.244 445.769 492.661 446.904 498.253 448.162 503.041 451.742 505.821 456.745 509.408 462.819 510.594 469.817 511.515 476.7 512.539 484.343 513.48 492.298 517.853 498.876 518.383 499.673 517.113 500.447 516.584 499.651 508.976 488.206 511.539 473.592 506.411 461.253 504.017 455.495 499.871 450.423 493.667 448.679 488.242 447.154 482.5 448.005 476.968 448.25 471.261 448.652 465.542 447.652 460.311 445.339 454.925 442.689 450.03 439.142 445.837 434.852 436.24 425.345 428.202 414.39 422.015 402.39 414.878 388.734 410.134 373.959 407.988 358.706 407.855 357.762 409.344 357.738 409.476 358.676Z" fill="#FFFFFF" fill-rule="evenodd"/><path d="M438.667 425.182C430.86 430.901 420.079 430.094 413.201 423.276 412.53 422.606 413.535 421.526 414.207 422.197 420.603 428.56 430.658 429.292 437.899 423.922 438.661 423.358 439.425 424.622 438.667 425.182Z" fill="#FFFFFF" fill-rule="evenodd"/><path d="M473.96 447.062C475.558 437.335 473.468 427.358 468.106 419.119 467.574 418.303 468.856 417.512 469.387 418.327 474.951 426.912 477.105 437.299 475.42 447.417 475.258 448.381 473.799 448.021 473.96 447.062Z" fill="#FFFFFF" fill-rule="evenodd"/><path d="M417.321 388.542C420.653 386.894 423.004 383.523 423.578 379.572 423.72 378.574 425.111 378.948 424.97 379.939 424.318 384.299 421.733 388.022 418.069 389.878 417.729 390.089 417.299 389.976 417.084 389.619 416.88 389.249 416.986 388.769 417.321 388.542Z" fill="#FFFFFF" fill-rule="evenodd"/><path d="M518.27 323.485C518.195 324.078 518.12 324.67 518.054 325.271 517.085 333.244 516.765 341.282 517.096 349.306 517.112 349.927 517.137 350.556 517.171 351.175 518.175 370.499 522.753 389.469 530.673 407.119 533.831 414.14 537.518 420.91 541.702 427.37 547.48 436.292 554.455 445.506 556.881 455.523 557.145 456.566 557.345 457.623 557.48 458.69L522.048 500.575C521.92 500.63 521.801 500.693 521.672 500.748L520.334 502.485C520.095 502.167 519.854 501.832 519.615 501.514 519.475 501.33 519.344 501.137 519.204 500.953 519.114 500.827 519.024 500.701 518.935 500.593 518.905 500.551 518.875 500.509 518.854 500.475 518.765 500.367 518.694 500.257 518.615 500.157 517.262 498.288 515.92 496.406 514.589 494.511 514.58 494.503 514.58 494.503 514.578 494.486 504.472 480.022 495.483 464.587 489.12 448.276 488.929 447.786 488.727 447.287 488.552 446.777 485.725 439.409 483.503 431.822 481.91 424.092 481.052 419.856 480.408 415.58 479.981 411.279 478.899 400.164 479.571 388.948 481.97 378.041 486.757 356.301 498.434 336.335 516.854 324.384 517.326 324.079 517.789 323.782 518.27 323.485Z" stroke="#DAC2A8" stroke-width="3" stroke-miterlimit="8" fill="#4B847D" fill-rule="evenodd"/><path d="M518.613 323.693C505.127 348.09 499.639 376.134 502.93 403.841 503.533 409.819 505.071 415.663 507.486 421.16 510.012 426.438 513.898 430.941 518.743 434.2 523.199 437.331 528.118 440.015 531.739 444.178 535.424 448.545 537.078 454.283 536.285 459.951 535.489 466.958 532.234 473.261 528.836 479.314 525.064 486.034 521.04 492.954 520.566 500.837 520.509 501.792 519.036 501.647 519.093 500.693 519.918 486.978 530.719 476.845 534.049 463.906 535.602 457.868 535.353 451.323 531.473 446.201 528.081 441.721 523.01 438.949 518.471 435.819 513.699 432.708 509.757 428.472 506.991 423.48 504.305 418.124 502.546 412.349 501.789 406.401 499.873 393.037 500.061 379.454 502.347 366.149 504.872 350.95 509.967 336.296 517.413 322.822 517.874 321.988 519.071 322.864 518.613 323.693Z" stroke="#DAC2A8" stroke-miterlimit="8" fill="#4B847D" fill-rule="evenodd"/><path d="M500.196 393.985C490.527 393.825 482.396 386.568 480.988 376.841 480.854 375.888 482.305 375.63 482.44 376.585 483.734 385.648 491.331 392.401 500.338 392.495 501.286 392.506 501.138 393.996 500.196 393.985Z" fill="#FFFFFF" fill-rule="evenodd"/><path d="M515.229 432.608C522.445 425.79 526.809 416.521 527.452 406.648 527.515 405.67 529.04 405.819 528.977 406.796 528.289 417.068 523.727 426.705 516.202 433.783 515.484 434.457 514.515 433.278 515.229 432.608Z" fill="#FFFFFF" fill-rule="evenodd"/><path d="M505.773 351.165C509.384 352.025 513.162 350.908 515.827 348.192 516.498 347.504 517.415 348.692 516.748 349.376 513.792 352.361 509.629 353.603 505.633 352.691 505.241 352.637 504.956 352.271 504.982 351.854 505.022 351.433 505.375 351.126 505.773 351.165Z" fill="#FFFFFF" fill-rule="evenodd"/><path d="M919.639 348.826C926.6 353.66 934.338 359.101 936.581 367.926 937.624 371.734 937.102 375.813 935.136 379.219 933.35 382.266 930.688 384.659 928.092 386.966 925.008 389.706 921.9 392.4 919.507 395.822 918.411 397.389 920.944 398.883 922.029 397.33 926.465 390.987 933.837 387.393 937.741 380.586 942.359 372.535 939.277 362.987 933.555 356.469 929.985 352.402 925.507 349.296 921.114 346.245 919.554 345.162 918.091 347.75 919.639 348.826Z" fill="#E6E7E8" fill-rule="evenodd"/><path d="M944.639 348.826C951.6 353.66 959.338 359.101 961.581 367.926 962.624 371.734 962.102 375.813 960.136 379.219 958.35 382.266 955.688 384.659 953.092 386.966 950.008 389.706 946.9 392.4 944.507 395.822 943.411 397.389 945.944 398.883 947.029 397.33 951.465 390.987 958.837 387.393 962.741 380.586 967.359 372.535 964.277 362.987 958.555 356.469 954.985 352.402 950.507 349.296 946.114 346.245 944.554 345.162 943.091 347.75 944.639 348.826Z" fill="#E6E7E8" fill-rule="evenodd"/><path d="M336.289 348.826C328.996 353.66 320.89 359.101 318.54 367.926 317.448 371.734 317.995 375.813 320.054 379.219 321.925 382.266 324.713 384.659 327.433 386.966 330.664 389.706 333.92 392.4 336.427 395.822 337.575 397.389 334.922 398.883 333.785 397.33 329.137 390.987 321.414 387.393 317.324 380.586 312.487 372.535 315.715 362.987 321.71 356.469 325.451 352.402 330.141 349.296 334.744 346.245 336.378 345.162 337.911 347.75 336.289 348.826Z" fill="#E6E7E8" fill-rule="evenodd"/><path d="M610 221.5C610 234.479 599.479 245 586.5 245 573.521 245 563 234.479 563 221.5 563 208.521 573.521 198 586.5 198 599.479 198 610 208.521 610 221.5Z" fill="#2F2E41" fill-rule="evenodd"/><path d="M683 274C683 306.585 656.585 333 624 333 591.415 333 565 306.585 565 274 565 241.415 591.415 215 624 215 656.585 215 683 241.415 683 274Z" fill="#2F2E41" fill-rule="evenodd"/><path d="M677 285C677 311.51 655.51 333 629 333 602.49 333 581 311.51 581 285 581 258.49 602.49 237 629 237 655.51 237 677 258.49 677 285Z" fill="#9E616A" fill-rule="evenodd"/><path d="M661.628 236.055C635.686 220.198 601.835 228.429 586.02 254.439 580.577 263.391 577.792 273.712 577.989 284.193 602.461 290.353 628.171 295.068 654.268 285.667L660.431 270.543 664.065 285.678C672.012 288.935 679.98 291.691 687.949 285.646 688.611 265.595 678.585 246.705 661.628 236.055Z" fill="#2F2E41" fill-rule="evenodd"/><path d="M537.399 373.984 537.336 373.984C530.882 374.047 525.056 370.124 522.678 364.116 520.12 358.031 521.567 350.997 526.317 346.419L526.586 346.152C535.644 337.016 540.748 324.676 540.793 311.801 540.804 293.62 530.641 276.816 521.114 262.493L519.358 259.859C509.864 245.635 500.046 230.927 497.547 213.984 494.893 195.99 501.697 176.997 514.88 165.597 528.564 153.765 549.193 150.585 565.048 157.864 581.481 165.41 592.052 184.207 589.637 201.588L589.612 201.768 583.837 206.971 583.625 206.955C569.951 205.899 556.33 214.922 551.929 227.922 548.966 236.674 550.031 246.264 551.624 255.323 554.999 274.51 560.675 293.219 568.527 311.045 568.925 311.95 569.329 312.859 569.738 313.772 574.315 324.035 579.048 334.647 577.235 345.639 574.37 363.011 555.958 373.176 540.089 373.921 539.19 373.964 538.294 373.985 537.399 373.984Z" fill="#2F2E41" fill-rule="evenodd"/><path d="M745.98 515.077C733.039 526.86 718.555 536.82 702.927 544.682L699.622 534.02 696.956 544.412 697.995 547.072C696.847 547.612 695.689 548.132 694.53 548.642 693.542 549.082 692.553 549.513 691.565 549.933 655.368 565.164 615.388 568.947 576.985 560.774 575.976 560.564 574.978 560.344 573.98 560.114 569.616 559.114 565.303 557.954 561.05 556.664L567 534.5 561.709 507.706 547.93 552.123C532.29 546.058 517.514 537.961 503.98 528.039 508.213 500.625 513.175 467.72 516.24 444.946 517.349 436.625 518.207 429.664 518.686 424.803 519.075 420.248 519.966 415.749 521.342 411.391 522.018 409.283 522.884 407.241 523.928 405.29 524.148 404.86 524.387 404.449 524.627 404.049 524.857 403.659 525.096 403.289 525.346 402.929 531.476 393.778 539.344 394.338 539.344 394.338L562.827 389.747 570.166 388.307 573.151 387.727 576.805 387.007C582.45 385.904 587.365 382.459 590.334 377.525L600.308 360.933C602.422 357.425 605.539 354.634 609.254 352.921 609.704 352.721 610.163 352.531 610.622 352.351 612.65 351.59 614.788 351.161 616.952 351.081L631.07 350.531 636.781 350.301 644.579 350.001C646.419 349.927 648.26 350.109 650.05 350.541L650.06 350.541C650.689 350.691 651.288 350.861 651.897 351.071 656.614 352.666 660.583 355.94 663.05 360.272L670.019 372.514C673.198 378.097 678.818 381.852 685.185 382.646L687.861 382.976 690.866 383.356 698.464 384.306 712.342 386.047 712.372 386.577C715.028 386.787 722.596 388.347 727.668 399.179 728.008 399.889 728.327 400.649 728.637 401.439 730.413 406.242 731.544 411.26 732.001 416.361 732.031 416.581 732.051 416.801 732.071 417.022 733.769 434.354 740.348 478.551 745.98 515.077Z" fill="#DAC2A8" fill-rule="evenodd"/><path d="M633.555 561.062 632.557 565.485 629.479 564.856 630.394 560.799C633.283 547.997 634.588 534.918 634.282 521.828L630.414 356.328 630.34 353.352 630.298 351.545 631.895 351.515 633.45 351.485 633.608 358.355 637.435 522.125C637.741 535.203 636.438 548.271 633.554 561.062Z" stroke="#4B847D" stroke-miterlimit="8" fill="#4B847D" fill-rule="evenodd"/><path d="M515.907 450.5 557.784 456.641 560.713 457.067 562.5 457.334 562.292 458.933 562.083 460.5 555.312 459.509 515.5 453.666 515.907 450.5Z" stroke="#4B847D" stroke-miterlimit="8" fill="#4B847D" fill-rule="evenodd"/><path d="M641.222 353.882 636.818 350.985 631.438 351.199 631.182 351.208 629.98 352.981 630.049 355.868 633.044 357.835 636.837 360.325C638.643 361.52 641.093 361.049 642.308 359.273 643.523 357.497 643.044 355.088 641.238 353.893 641.233 353.89 641.227 353.886 641.222 353.882ZM640.67 358.184C640.063 359.073 638.838 359.309 637.934 358.712 637.03 358.115 636.789 356.911 637.397 356.022 638.003 355.135 639.224 354.897 640.128 355.49 641.031 356.089 641.273 357.292 640.67 358.184Z" fill="#6C63FF" fill-rule="evenodd"/></g></svg>