<svg width="366" height="287" xmlns="http://www.w3.org/2000/svg" xmlns:xlink="http://www.w3.org/1999/xlink" xml:space="preserve" overflow="hidden"><defs><clipPath id="clip0"><rect x="457" y="216" width="366" height="287"/></clipPath></defs><g clip-path="url(#clip0)" transform="translate(-457 -216)"><path d="M634.893 298.5 653.107 298.5 659.022 323.687C669.104 326.358 678.293 331.668 685.644 339.072L710.393 331.606 719.5 347.394 700.666 365.115C703.396 375.19 703.396 385.81 700.666 395.885L719.5 413.606 710.393 429.394 685.644 421.928C678.293 429.332 669.104 434.643 659.022 437.313L653.107 462.5 634.893 462.5 628.978 437.313C618.897 434.642 609.708 429.332 602.356 421.928L577.607 429.394 568.5 413.606 587.334 395.885C584.604 385.81 584.604 375.19 587.334 365.115L568.5 347.394 577.607 331.606 602.356 339.072C609.708 331.668 618.897 326.358 628.978 323.687L634.893 298.5ZM644 350.794C627.609 350.794 614.322 364.094 614.322 380.5 614.322 396.906 627.609 410.206 644 410.206 660.391 410.206 673.678 396.906 673.678 380.5 673.678 364.094 660.391 350.794 644 350.794Z" stroke="#FFFFFF" stroke-width="1.33333" stroke-miterlimit="8" fill="#DAC2A8" fill-rule="evenodd"/><path d="M786 239C786 251.703 775.7 262 763 262 750.297 262 740 251.703 740 239 740 226.297 750.297 216 763 216 775.7 216 786 226.297 786 239Z" fill="#BD9263" fill-rule="evenodd"/><path d="M809 314 809 291C809 287.55 807.28 284.1 804.4 281.8 798.08 276.625 790.03 273.175 781.98 270.875 776.23 269.15 769.9 268 763 268 756.675 268 750.35 269.15 744.025 270.875 735.975 273.175 727.925 277.2 721.6 281.8 718.725 284.1 717 287.55 717 291L717 314 809 314Z" fill="#DAC2A8" fill-rule="evenodd"/><path d="M533 239C533 251.703 522.703 262 510 262 497.297 262 487 251.703 487 239 487 226.297 497.297 216 510 216 522.703 216 533 226.297 533 239Z" fill="#BD9263" fill-rule="evenodd"/><path d="M556 314 556 291C556 287.55 554.275 284.1 551.4 281.8 545.075 276.625 537.025 273.175 528.975 270.875 523.225 269.15 516.9 268 510 268 503.675 268 497.35 269.15 491.025 270.875 482.975 273.175 474.925 277.2 468.6 281.8 465.725 284.1 464 287.55 464 291L464 314 556 314Z" fill="#DAC2A8" fill-rule="evenodd"/><path d="M525 425C525 437.703 514.703 448 502 448 489.297 448 479 437.703 479 425 479 412.297 489.297 402 502 402 514.703 402 525 412.297 525 425Z" fill="#BD9263" fill-rule="evenodd"/><path d="M548 500 548 477C548 473.55 546.294 470.1 543.45 467.8 537.194 462.625 529.231 459.175 521.269 456.875 515.581 455.15 509.325 454 502.5 454 496.244 454 489.988 455.15 483.731 456.875 475.769 459.175 467.806 463.2 461.55 467.8 458.706 470.1 457 473.55 457 477L457 500 548 500Z" fill="#DAC2A8" fill-rule="evenodd"/><path d="M801 429C801 441.703 790.7 452 778 452 765.3 452 755 441.703 755 429 755 416.297 765.3 406 778 406 790.7 406 801 416.297 801 429Z" fill="#BD9263" fill-rule="evenodd"/><path d="M823 503 823 480C823 476.55 821.29 473.1 818.45 470.8 812.19 465.625 804.23 462.175 796.27 459.875 790.58 458.15 784.33 457 777.5 457 771.24 457 764.99 458.15 758.731 459.875 750.769 462.175 742.806 466.2 736.55 470.8 733.706 473.1 732 476.55 732 480L732 503 823 503Z" fill="#DAC2A8" fill-rule="evenodd"/><path d="M588 274 686.032 274 686.032 280 588 280ZM683.032 268 701.032 277 683.032 286Z" fill="#BD9263"/><path d="M771 322 771 384.162 765 384.162 765 322ZM777 381.162 768 399.162 759 381.162Z" fill="#BD9263"/><path d="M2.78647e-06-3 98.0322-2.99991 98.0322 3.00009-2.78647e-06 3ZM95.0322-8.99991 113.032 0.000104987 95.0322 9.00009Z" fill="#BD9263" transform="matrix(-1 0 0 1 694.032 483)"/><path d="M506 320 506 382.162 500 382.162 500 320ZM512 379.162 503 397.162 494 379.162Z" fill="#BD9263"/></g></svg>